<svg id="svg" xmlns="http://www.w3.org/2000/svg" xmlns:xlink="http://www.w3.org/1999/xlink" width="400" height="400" viewBox="0, 0, 400,400"><g id="svgg"><path id="path0" d="M187.818 15.608 C 187.444 16.214,187.301 49.321,187.501 89.180 C 187.760 140.943,187.558 162.168,186.791 163.463 C 185.997 164.804,185.532 146.382,185.003 92.589 C 184.610 52.612,184.103 19.714,183.877 19.484 C 182.054 17.624,148.965 24.993,140.931 29.048 C 112.588 43.356,94.925 73.238,90.722 113.990 C 85.514 164.495,84.028 170.312,72.352 185.922 C 63.360 197.944,47.516 221.508,39.965 234.088 C 31.175 248.730,11.633 294.701,7.233 311.086 L 4.907 319.744 8.436 324.678 C 17.953 337.982,35.542 356.697,36.275 354.298 C 36.507 353.536,37.891 346.359,39.349 338.350 C 44.833 308.236,61.691 261.149,75.892 236.276 C 94.695 203.344,110.284 192.374,136.827 193.396 C 152.680 194.007,163.946 200.990,178.478 219.214 C 194.582 239.408,204.050 240.466,218.037 223.636 C 243.731 192.718,265.538 185.436,291.990 198.938 C 319.184 212.819,351.770 282.423,363.576 351.845 L 364.220 355.632 371.027 348.932 C 378.356 341.718,392.741 324.409,394.360 320.856 C 396.255 316.696,389.135 296.156,373.347 260.235 C 363.450 237.719,348.338 212.977,327.364 184.951 C 316.776 170.805,315.427 165.741,310.673 122.330 C 307.663 94.835,306.124 87.752,300.151 73.897 C 290.699 51.974,270.822 32.215,251.718 25.752 C 244.087 23.170,217.908 18.662,216.826 19.744 C 216.433 20.137,215.797 47.203,215.414 79.890 C 215.031 112.577,214.646 145.218,214.557 152.427 C 214.434 162.474,214.175 164.854,213.447 162.621 C 212.857 160.811,212.604 136.386,212.777 98.058 C 212.931 64.150,213.068 31.602,213.082 25.728 L 213.107 15.049 200.803 14.777 C 192.405 14.592,188.283 14.856,187.818 15.608 M157.211 173.328 C 164.994 175.795,169.323 178.047,174.757 182.454 C 178.032 185.110,177.106 184.965,169.794 181.676 C 147.013 171.427,128.658 172.447,101.192 185.487 C 94.502 188.663,88.790 191.262,88.499 191.262 C 86.810 191.262,101.853 181.715,109.240 178.099 C 127.145 169.334,140.444 168.011,157.211 173.328 M278.600 172.858 C 288.319 176.079,311.650 188.764,311.650 190.827 C 311.650 191.039,308.265 189.646,304.126 187.731 C 280.008 176.571,277.444 175.718,265.983 175.043 C 254.735 174.381,244.090 176.279,232.039 181.097 L 223.786 184.396 227.184 181.445 C 232.851 176.526,241.667 172.980,254.369 170.512 C 259.299 169.554,272.481 170.831,278.600 172.858 M123.301 196.976 C 105.541 202.718,89.637 218.927,76.894 244.273 C 62.243 273.412,38.672 344.700,44.532 342.148 C 66.707 332.492,92.757 328.077,112.000 330.714 L 116.503 331.332 121.069 345.846 L 125.635 360.361 129.080 359.870 C 130.974 359.600,133.759 359.069,135.269 358.689 C 137.330 358.170,138.736 358.532,140.916 360.144 L 143.819 362.290 142.251 359.258 C 140.368 355.616,136.889 354.049,133.526 355.328 C 131.216 356.206,131.060 356.003,129.220 349.722 C 118.644 313.613,111.645 289.003,111.883 288.765 C 112.042 288.606,117.811 302.457,124.703 319.546 L 137.234 350.617 163.564 324.300 C 189.072 298.805,189.881 297.880,189.501 294.626 C 188.566 286.621,192.725 281.553,200.228 281.553 C 207.086 281.553,210.680 285.371,210.680 292.656 L 210.680 297.728 236.548 324.161 C 250.775 338.699,262.721 350.242,263.094 349.811 C 263.466 349.381,269.172 335.610,275.772 319.210 C 282.372 302.809,287.894 289.512,288.043 289.661 C 289.031 290.649,269.054 355.781,267.862 355.459 C 264.165 354.461,260.756 355.147,259.072 357.227 C 256.546 360.347,256.850 361.493,259.707 359.621 C 261.382 358.523,263.110 358.230,265.289 358.673 C 267.026 359.027,269.834 359.557,271.529 359.853 L 274.611 360.390 279.187 345.842 L 283.763 331.295 288.134 330.696 C 304.447 328.460,328.543 331.751,346.987 338.734 C 352.382 340.777,356.913 342.356,357.056 342.243 C 359.871 340.015,334.845 266.620,323.775 244.638 C 311.103 219.475,293.608 201.999,275.795 196.711 C 267.661 194.296,267.364 194.724,272.954 200.799 C 283.501 212.264,287.547 221.873,283.064 224.811 C 269.413 233.756,221.215 243.008,221.393 236.650 C 221.412 235.983,222.035 232.601,222.778 229.135 C 224.491 221.144,224.516 221.150,218.537 228.051 C 207.091 241.263,195.437 241.402,182.382 228.482 L 175.929 222.096 177.270 227.795 C 179.790 238.508,180.502 237.864,166.128 237.864 C 152.113 237.864,145.203 236.316,126.392 228.961 C 114.364 224.259,113.268 222.860,116.546 216.403 C 119.502 210.580,123.942 204.211,128.488 199.272 C 132.868 194.513,132.045 194.149,123.301 196.976 M281.881 239.907 C 268.780 256.582,248.834 260.377,226.413 250.459 C 220.524 247.854,221.453 247.493,229.612 249.213 C 249.580 253.425,267.350 249.973,279.612 239.501 C 283.083 236.537,286.061 234.082,286.229 234.046 C 286.398 234.010,284.441 236.647,281.881 239.907 M123.417 241.650 C 133.885 250.210,153.434 253.267,171.177 249.119 C 179.709 247.124,180.017 247.199,174.696 249.972 C 154.580 260.453,131.474 256.637,119.029 240.777 C 113.914 234.257,114.525 234.379,123.417 241.650 M208.701 247.069 C 211.316 248.394,213.730 249.923,214.066 250.467 C 214.829 251.701,215.017 251.720,209.312 249.989 C 206.690 249.194,202.719 248.544,200.485 248.544 C 198.252 248.544,194.280 249.194,191.659 249.989 C 185.010 252.007,184.445 251.824,188.598 249.002 C 196.074 243.922,201.468 243.403,208.701 247.069 M205.128 253.780 C 212.145 256.818,212.663 258.264,206.153 256.638 C 200.827 255.308,199.629 255.302,195.241 256.589 C 189.524 258.265,189.678 256.936,195.508 254.289 C 200.349 252.091,201.132 252.049,205.128 253.780 M123.930 266.221 L 129.899 270.571 136.551 268.836 C 148.697 265.670,166.012 266.678,175.485 271.102 C 181.095 273.722,180.991 273.868,169.580 279.442 C 155.882 286.132,150.666 293.698,144.582 315.703 C 141.029 328.553,140.340 329.828,141.262 321.845 C 144.288 295.649,154.317 279.158,169.903 274.749 C 180.503 271.750,148.597 270.241,137.031 273.194 L 129.888 275.018 122.468 267.429 C 118.387 263.255,115.704 260.297,116.505 260.856 C 117.306 261.415,120.647 263.829,123.930 266.221 M278.452 267.649 L 270.998 275.103 262.926 273.231 C 253.327 271.005,238.218 270.749,232.591 272.718 L 228.775 274.053 233.702 275.891 C 247.230 280.937,256.941 298.293,258.667 320.510 L 259.223 327.670 256.019 316.019 C 249.933 293.893,244.265 285.724,230.411 279.119 C 224.862 276.473,221.362 274.253,221.598 273.530 C 223.354 268.142,249.297 265.158,263.107 268.756 L 270.388 270.653 277.549 265.424 C 287.126 258.429,287.284 258.817,278.452 267.649 M194.175 329.612 L 194.175 352.427 200.000 352.427 L 205.825 352.427 205.825 329.612 L 205.825 306.796 200.000 306.796 L 194.175 306.796 194.175 329.612 M182.245 315.325 L 177.670 319.970 177.670 336.198 L 177.670 352.427 182.002 352.427 L 186.334 352.427 186.614 331.552 C 186.767 320.071,186.877 310.678,186.857 310.679 C 186.837 310.679,184.761 312.770,182.245 315.325 M213.592 331.574 L 213.592 352.427 218.447 352.427 L 223.301 352.427 223.301 336.480 L 223.301 320.533 218.447 315.627 L 213.592 310.721 213.592 331.574 M231.105 339.078 L 231.068 352.427 235.922 352.427 L 240.777 352.427 240.777 344.242 L 240.777 336.058 235.959 330.893 L 231.142 325.728 231.105 339.078 M163.798 331.829 L 159.223 336.474 159.223 344.451 L 159.223 352.427 164.078 352.427 L 168.932 352.427 168.932 339.806 C 168.932 332.864,168.806 327.184,168.653 327.184 C 168.499 327.184,166.315 329.275,163.798 331.829 M146.961 359.466 C 147.283 360.667,147.552 361.978,147.560 362.379 C 147.587 363.889,251.456 363.241,251.456 361.730 C 251.456 360.973,251.721 359.662,252.046 358.817 C 252.579 357.428,247.554 357.282,199.505 357.282 L 146.375 357.282 146.961 359.466 M151.968 368.283 C 153.022 368.994,163.495 374.524,175.243 380.571 C 186.990 386.619,197.293 391.994,198.137 392.516 C 199.307 393.240,205.648 390.324,224.836 380.239 L 250.000 367.012 200.027 367.001 C 158.105 366.992,150.362 367.199,151.968 368.283 " stroke="none" fill="#000000" fill-rule="evenodd"></path></g></svg>